/* XPM */
static char *default_aspen_wood1752672166[] = {
/* columns rows colors chars-per-pixel */
"128 128 80 1 ",
"  c #3C362A",
". c #3E392C",
"X c #403B2F",
"o c #423D31",
"O c #454135",
"+ c #484337",
"@ c #474338",
"# c #49463B",
"$ c #4B483E",
"% c #4D4B42",
"& c #514E46",
"* c #534F48",
"= c #545047",
"- c #55524A",
"; c #5A564D",
": c #5C584F",
"> c #5B5750",
", c #5D5A53",
"< c #5F5E58",
"1 c #625E56",
"2 c #625F58",
"3 c #656057",
"4 c #65625B",
"5 c #6A665E",
"6 c #6D685F",
"7 c #6A6660",
"8 c #6E6A62",
"9 c #726E65",
"0 c #726F68",
"q c #747067",
"w c #76726B",
"e c #79756E",
"r c #777570",
"t c #7B7671",
"y c #7E7973",
"u c #837D75",
"i c #887F75",
"p c #827F78",
"a c #868076",
"s c #898376",
"d c #868179",
"f c #8C8679",
"g c #8E897B",
"h c #918B7E",
"j c #8F8A81",
"k c #948E81",
"l c #988F82",
"z c #969183",
"x c #9B9485",
"c c #9F9887",
"v c #979388",
"b c #9E9688",
"n c #9F988A",
"m c #A09787",
"M c #A09887",
"N c #A09788",
"B c #A39C8C",
"V c #A89F8D",
"C c #A59F91",
"Z c #A7A08E",
"A c #A9A08E",
"S c #A7A091",
"D c #ACA392",
"F c #AFA897",
"G c #ADA698",
"H c #AFA899",
"J c #B1A694",
"K c #B3A996",
"L c #B5AC9A",
"P c #B9AF9D",
"I c #BBB19E",
"U c #B6AFA1",
"Y c #B7B0A1",
"T c #BEB4A1",
"R c #BEB8A7",
"E c #BFB8A9",
"W c #C1B6A3",
"Q c #C3B9A6",
"! c #C6BCAA",
"~ c #C8BEAC",
/* pixels */
"%%$&=%%<,;:1131,,,1<,,>>=%@X.XX.+X+::=:==:=:3=:3:3633qqsqiqqqqqqqqq685358q8qq53,>;-&*%#$+ooO#%#*=*%=*%%#%%&%@@o##%%%&=--&-*-*%%%",
"ZBADDZBLLLLFLLLLLDDZCZBZCnvvhhjghhhhhhThhIKhIhhKKhIhhWKIKKIIKKKKWIIILITTIITTTTTRYULKGJKGDSSBnbkjvvvvnvvbBvvvp<  >pvNDFGGDGGKKDSB",
"LLLLLLLLLLLLLIIITTIIYLLLFFFLLYLLIKIQ~~QQIIWIQIW~KKKKKKKhAJJJKKKKLLKIFLLIFFFFLLFFLKJJJGZDDSSDDDGBDSDDHLLUYWWQQvoo8lDLLPILLKKKLPLP",
"vbbvzjzgggggfddffdffssgghzhchvnvJhhhhhhhhhhhhhhhhhhgssghssssgggggssgggghggggggggghghhffggghkxzzvvbbbbvnnCCC!QC+o8pgjgaauafudfgzz",
"fffgfgggggfgghsssfgfffggghggghhhhhhhhhhhgghhhhhhhhhhgggghhhshhhhgghhhhhhhhchghhhlkkllhhhhgkkllllklklvkkjjfgWTv#o0yafapdffaadddfs",
"hhhhhhzhhzhzhhhhgghhhhhhhhhhhhchhhhhhhhhhhhhhhhhhhhhghhghhhghhhhhhhhhhhhhchhhhhhbzzbcmxxczxbcbbNvlvlvzzzkjjYWNoo0paauhfggghjkgkg",
"bbcbbcccMbBMMxxxvvhhvvccBccBBcBnhhhhhhJhhhhhhhKhhhJhJhhhhhJhhhhhhhhhZhhhZchhhZFZNBBBBBBBBBBVBVBBBbbbvzzbvkkTQN#o0pdaghklzlllzxvv",
"ZBZBBZBZBZBVBBZMZZZZZZBZZZnBBBZBJJKAJKhJhKKhIhKhhKhhhhJhAKhhhhhhhKKZhFKZncZZZZhZBBVDBBZZBBVBVBVVDBBBBbcbvkkYQvoo0pdkklbbbbccBBBV",
"ZBAJDVVVBMmxhhhhhhhhhhhhhhhhhhhchhhhhhhhhhhhhhJhhKhhhhJhJhJhVhJJhZZAZZZZcchcnccnBBBBBBBBBNNnbvlvzzbbbxbNxljCKkoo0piiklxlzbbNVBVB",
"xcxxmhhhlllxMMAVDhJhKhJhBZZZJZZZJhKJhJJhJJIhIJKhThhIKhJhJhJhVhhhZhhhhhhhhvvcnBnBbBNBBBVZCBCNNNblljgiuttrtrtuaeo.7pyurttyyagkklzx",
"hhhcMVVADKJJKJKKKKKJPKJVDZKKKJJJJJJJIJJJJJAAKJKJIhQKKJKKJJKKJhhKZZZhhJJZZnZZBBBZBBVVBBVBBBBBNVVCCDDKPGNvjpydf0. %22wyupfauaupiif",
"JJJKKPLKKKKJKKKKKKKKKKJJFZAJJJLLIKKKIKJJJJKKKJIhKKIhJKhKhJKKJKKhhZZZZhhZZnZnBZZZVVVVZBVBBbnnBBCVVDDVVVDVCnbUYbo 9gfkvbbBZDDVVDVD",
"JJJJKKJKKKDJJKKKKJJhJKJKJJAAAZZAJJJJJJJIIIIIIWIIIIKKKKKhJJhKJJhJZhAZhJhhZhZJZZhDZAAVVVDBBBBBVCCVVVVVVVBNlkjLWN% 0gjlvmNBVVVVJVVJ",
"AJJJJKDJDAAAVAAAKJKIJPKKJJJKJJDJJIKKKKIKKIIIIIIIKKKKKKWhKhJJVVVVAAZMAJJZZZZhZZZZVDDADDVDDDVDVCVVDDVVJVCNbkgPQN# 9kjkvbNBVVCVCCVD",
"VVADDVAAJKJJJJKJJJJhVVVAVDAAAAAAAhAJJJJJKKKIIKKIKIKKKhIKKJJhhhJJAAMZZhhAZZZZDDJDGDJDJGGVBDDCVVCVDJJJHDVBNkjUQb@ 7jgjlllxxNlzNNBC",
"mBMBVBADADAJJDJJJJIKDVVAVAJJJDAAAAAJKhJAAAJJKJKJhWKKKKIKKKJJKJVVAAZZAAJAAZZZZZZZDBBBBBcbbkkhgfgddadjjjllkjiCLko.7gglvNNVVVCNNlNN",
"VVDADJJDKJKKKDKKKKKKKKKJJhJJKKJJJDADDDDVJDVAhIJKKKKIPPKJKJKKJJDAAAJJAJJJKJKKAAJJJAJJJAAAVVCVCCBnNlvjy087222702XX8jjlbbBVVVCCBNNN",
"VDADDDDDJJJJDKKKIIIWIIIIIIIhJJJJKJJADAJJVKJJIWhWJJJJJKKJJJJJKKJJAAAJAJAAADAJKKKKKKKPKKKJJGDDDVVVCBVDGKDVCvkCVio 8ljlNBBCVDVVADDV",
"DDKKJDDDAKKJDDAJKIhWIIIWKKJJKKJJKPPPIIPKKJKKJhJJVJAJJJDJDJDVVADVJAAAAAAAAADDKKKPPKKKKKKKDDJCDCDCVVVHVJDVVBxTQx* 8ljlllbNNBBNCDDD",
"hhhhhhzzhhhhhhzhhhhhJhhKhJhJhKhhVVBBVVVVJVVJKJKKAJJDAJJJDDAAAAAAAAJAAJJKKDDJKKKPJKKKKJJADJVGDVDVDDVJJKJDVNxEQx- >977889qweuuiiif",
"hllxzxlzhhhhhhhhhhhKhhhhhhhhhAhJbBbBMBBBhJJJKJIKVKJJJJJJJJJDDAAADAAAAAAAVAVMVJJKKKLKKPJDDVVVCBCVCBVVDJDDCNnEQN; 7fppudffijjjjjll",
"BMBBBBBBAAAAMMMxhhhKhKhKJhJJJhhhcccBBMMchhJhhhhKVhJhBBMVVVAVVZJDAADAAAAAAJJJAZAJDJJJJDDDCVDVVVCNBNbNxzzxvlkEQx; 8fipfgjlxllbNNbN",
"NNNBccBBMBBMczczKhhhhhhhhhhhJhJhcnBcBcxxJJVKKhJhJhVhVmVMhhhVmBMBVVZVMAhAMBBVVMcxmxcxcmmMnnNnNbNCNCBNbllkkadDPk; 7iiifjjljlvkbxxx",
"zzzxcbbbMmMhzkklhhKhKhKhhJJhhJhhlzzlxcxxhAhhhJhJVVhJMMMVAVhhxcxxxhmMhhMMxmxmxmbNBNbccBMMCVVDDDVVnkkkkapyw07891+ 8jjiaggjjllllxxx",
"blvbbzbbvcvvzxkkhhhhhhhhhhhhKJhhvcczcxzxzzxBNNNNhhJhJhJhxxhxhxxxxmmxzzzzcbxcBBNBcBBNNBbbbbBNNCNBCVVVCBCNnnvGTv; 8jdiiijjljjlllvx",
"blklzlzlzzzzzzzhhhZhhhhhhJhhhhhhzllkllxzxxlxxlblVhhhhhhhxhxzxzxhhhhhlkxzxlzlzxcxxxxcbbbbmxxxbNbbbNbbNbnNnCCE!C; 8jiiffjklNllNlxx",
"lkjjjklggjgzhhhhhhhhhhgghhhhhhhhgfgffggghhhhkhjghhhhhhhVhzzzhxhxlzxlklzzzzzlzxvzxzzzbxlxxzxllllvvvlvbbbnNCCE!C1 7jjiiifjjjljlllk",
"lkklkgkkzjgghghhhhhhhhhhhhhhhhhhfffffaafhshffgfghhhhhhhhghhhhzxhllllklllzzlzzzllzlxxllNxxcxxbbbxxbNNCNCCCCH!~N; 8iiifjfjjljfjjkl",
"jjhggkggggggsgfghgsghghggghhhhhhhhhhgggggfgggfffgfgghggsgffggfgffggggghhkghgkggghhgjggjgkkkjkgjjjjkljjjjklvNGd# 2fiiiidjjiiuijfj",
"2447880wrrryryrrurq866366636q666754790rtyuyyupuuuuuusiuueweqqqq988890088790000wwwyuupyuuuuppiuipipupypu988,,,>  %>244222<2,122<<",
">>1&#%%&=$%$%%$====;63:336666a662-$.  o#%%&**&&*&%$&&&+&<::<4355455313<>;,,<<,,,>>&%%%%>>****>>>**-*;>;>>-*>>*%*;2<22122>21*;>->",
"LPJJBGJGZFFFFFZBZZZZhIhKIIIIIIWWPGb4 opDDDKJVVVVVVDDDmVDDDDKDFDJKBcDBJDBBVDDbBBBBDCVDCVGDDDDCVCVCGJKKPKKGJJKGVDVKKKGKKKPLLLKLLLH",
"WWITLTWTWTTTTTRTWTTYYWYWWTEWQQTQQQUp olQQTYPPYWWTUKKJDGDKFKKKDKKKZKLFLLTLITWWTTWIIKITTIITTWW~~QQ~~!~~~~QQTIIWPWITWTIIITITTQRW~QQ",
"BBnBZSZDZDDDFHFLHUGGHCCCCCnbNNCCUQWp ouGKVCNbbvbzkhzkkzzhzzzzkzhhgghggghghgghhhhhMhhhMhhhMhhhhhhkhhhhhhhhhhZAhhhhhhhKDZZZhZZZhhZ",
"hzzzzzzzvzzzzzzvkvljkkkkggjjjjjjlHWt oyNvjffffffjgjkgjgfggggkhghhghhgghhggssgshgggssgssssggggggggshfghggggsgssgshhhhFhhhhhhhhhhh",
"hklzzzllzzvxxzzzkkkljkkkkgjjlihhjHUr oellkjjjjjkzzlzzkzkzzhhhggghhhhhhhhgghggghhggggssggsggggghhghhgggggghhhhhgghhhhhhhhhhhhhhhh",
"bxxxzxmcccbMxnbbNbbNNvvvvkkkkjjhjHYeXowhkjgjkklvbbzzxvvvzvvzzzkkhhhhhhhhhhhhhZhhghhhhhhhggggghhhhhchhhhhhhzhhxhxhhJhhJhJFhZhZhZh",
"BBBMcMZBBBBAAAZACBNNBNNNbblkkjjjjHL9XoehjggjkklvncbBBNNNbBbccbcbhZhZhhZhhhhZhZZhhMMhMhhMhMMMMhhhMxMhMMMBxxbcbxMhKhhhhZZKhZZKZZZF",
"BVBBBBMBBVJZADDDDDDCVCVNBNbvvkjjjDU7 otjjkjklxvbbzzzbbbnbbcccBBBhFFhZZZKhZFhZhhZhZMMMhMMMMMVJAJhBZBBMxMBcbbxBccxhJhJJZhhZhZhZKZh",
"ZBBBBBBMBBBZZZDAVVVVVNCVCNbxkkjjjJH2 X2etuutrerydaffggjghhzkzzzzhhhZhZhhZZhZhZhhhghghhghhhgMhZZZbxBBZZBZBBZBZBBBJhAhhZZZZKZhZhDL",
"xxcmcBBBmVBBBbcBCVVVDVAAVBCbvvlkkDK1  :52258euuaklbNbNBnbBBBBNNNFZhZhhhhhZhhhhhhchhhhhchhhMhhZhVcchMBMBVMVMMcbcMhhhKZhZhhhhhZhZh",
"hllxzllllhkkllzlllxbbNxNbvlkkjkjjlz: o8ififfgklbNCCBVVVVCVVVVVVVZZKhKKKIhZJZhJZhZZZhZhcZVhMMMMMMBBMMhxhMhMMhcxhMJZhhhhhhhhhhhhhh",
"BBZAVBBBBBcBnBCBBCDHHHJHKVCxguw0886# O9ajhfgkvbbNBBBCVVBVVVBVVDDFJhKKKZZZZZJKZZZccccZhhZZZVZAZVAAAZZZBBBMMMMxxxzhhhhhJhZZhKZZKLJ",
"VDVVVZVVBBBbCBBBBNCVVDDDDHKKKCCbvzf&.o7agjhgklllvnlbbBBBBBBBVVDDZZKZZhKhZZhhhZhZMZcccZZchMMZJAAZAZZAZBZBMBVBZcZBDLFhJhZhhKhKDhZZ",
"BBVBZZVVVBZBBBBVCAVVVVDAVVCCNbvvvGD> X5ajkzxCBBBBCVBBDVVBZZZVDVAJKKILLLKKKKKLLLKZZZKKKKKJZAJKAJZABBMBBBBBMBBBBcBhhDhhZZZZZFhhhJZ",
"ZDDVZAVZZDVBBCDZVVAVVVDJJVDVCnvlvKK3 X4ihlxcBCVCDVVVVDDDDDJKJKKKKKTQIILLLKKKKKLKKKJJZJZJAJAAJJJJJKAAAAZZZZAAZZZZKJZKZZZDZZFZLKJZ",
"DDJDDDDDDZDVBBVVADVADVDCDDCCCbbkvLL5 X5uupafklzcNbbnNBbBBBBVBBBBhZFhhZhFhZZhhZhZZhhZhZZZJVZZZZAJDDKJZZZZZZAADDDDFDKKZZZZJJJJJJJJ",
"LLLKKKKKKKKGDDBVVBCBCCCVVCVVVNbvnTK4  &155590tupdgklvnbbNBBBNBBVZZhZFKhZZZJZZJZZZKJJZZZZZVVJAAVAKJDAZDJJJJLLLDLKKKLLKKKJJJKKKLLK",
"LLLLKKLJKKGJDVVBVCVBVBNNBBNnnvvbnYL5 o2ykvbnCVDKHJJKKJKWPKYPPPPIIKLLLKKJJZKKKIIKKJJKAhZJZZZZAJZZZZZFKKKFZZJKFFFFJKKKKKKKKKKKKKLL",
"KJJJJJDDDDDDVVVVBCBCCVCBCBCbbbvlvTL7 o2ubNNCVHDDAJKKKWWKYLYPLPWILKIITIKILLKIhTLKKKJKKKZJZZKhZJZZZZhZZZhKKKKKFFFFZJZJKKJJJJJJKKKK",
"ZZDDDADDDDDGGDDDVBBCBCBNCBBNbvlvlYP8 o,ubCVVHJJGJJKJKWKLPLPLLIIKKKLKIKZJJKJhhZhKZhhZhhKJAhhAhMMMhZZhhZhZhhhKhZhFhJFhZZKhZZZZZZZZ",
"LLKKLLKJJDDKKDGDGJVCCNCCNCNvvklkgGK0  >tbVCJJJDDGGGJJKKJDJJJDKJJFKKZhJZZhKZJIKhZZZJKJhZhAAKhZMMMZZJZZFZZKKKhZZZZLZJIFKKKJKKJKKKK",
"LKKKJJKLKGJBVDDCCCDVCBBNnbvvlkjjfDLy.o>ylbBCJHKHGDJJJDDDDDDVVCVBhFZhKJZZhJhJhZhZJhAhJhhFhJZZVVAAZZZZKZKKLKKZFZZZJhZJhLZJKKKKKKKK",
"BBZVZBBBBBBBbbbbNNNNxxxvvlkkgfaidDLp..;yafkkbNNbNNlNlNNNcBBbNNCNFhZhZhZZJhAhJhAhhKhZhZhhhhVhhVAZZZZKKZKFKFZKFFZZJLZFZKFZZhZZhKKh",
"BBZZZZZBBBbBBBBBCVGCHVCCnlkgpppupzBu. %>1127wtypdjjllNNNbBCBVVVCJZhZJKhhZhhZZhhAhhJhhZFhAAMMMhVVhZZZKKKKZZZZFZZZhZZZhLZFZhKJZKZZ",
"ZZZDJDDDDDVDVBSBBCVVVJVDJCCnbgp0880;  ;uffjkxNnCVCCDCDDCVDDDDDVVZZKZZhKZhKAKhZKhKhhhZhhhMhhAMMMhZZhhhFhhZZFhFhZZFhhZZhhLZZhZZhZZ",
"VBBBCBnBBBBbnnBBCCNNbnNNCCnnbbvvvbvto ;ulkjkvNCBVCDDDJDACVDABVVCZZZZZnZFKZhJhZZhhFhhZhZZZZZZcccchZZhZZhhhZnhZhhhhhZhchnZZhZFZhFZ",
"ccbBBBBDCVDDBBCnNNnbbbvnBnnnbNkkjcTko *plkkjlbNCVVCDDJHJBAGDCDVVFZBnZcZFZZJJKJJJFZZFZZZhZhchhcccZhhhhhchnhzzhhvjhjjzhjzhZhhhhZZh",
"VBBBBBnBBBBBBBnnNNNCnnbzbvvblljjjvTb# &uvkkkvvvBDCDJHJLCVAGGCVVCFZZZZZZZZZJKZKJhFZZZFZFFZhccZZZchZhZcchZZhhcZhZZFhnnZnhnZZZZhZhF",
"DBVCVBCBBDBCDBCCCnnbbbbbbvlkjjjjfkTn# &yffddggklNbNNBBCCllNxllvkhvchhhhvhhhhhhZhZhhZhhhZhZcchzhchcchhchchcZnZZnnhZnnncZnhFZhFZZZ",
"cnBbbBBBBBnnnBnnnnbvblvblvlkjjjjfjLC% +:<80ryppafjjjlllkjjjjkjkgghhhhhvhZhZhhhhhhhzhhggzhhhZghhhhgchhchcncvhnhvZZZcnZcccnZZZhZZZ",
"nBbbbbBBBBncnnbBBnnbbbvlvlvlkkkjjjTJ* *ubzvvvlvlljlvkllllllvvllkhvvhhhhhhhhhhhZhhhghhggghhgggghhhgzhhhhhhhhvhjzhhhnhhhcnnnvZFhZh",
"zzvzvzvcbbbbbvbvvvvvlkjjkjkjjkjjkkYK; *iSbbbvvvlvvvlvvlvllllkkjlhhvhhhhhhhhhhhhhhhhhggggggggggggzggghghhhhhhhhhhhhhhggjzvhnhhZhh",
"kkkkllzzlkzklklkvkklkkkjjjgjjkkkkkPG> *iCbvvNCCbNNCCCCCVCNNCVBNNBBhchccnhhhZhhhhhZhhhhzgzgzggggggggghghhhhnhhhhhnhhhgsgggzhhhhhh",
"hhhhhhhhhhhhhhMhxbblzllhhshsiissggSn% %uuuuupiiuiffggafigifjgggghggggfgffffsfffffssaaauuadiuiiiiiuuuuyuyssasssgsgfssssssshhhhhhm",
"iuausssssisas6i6789009qwu6uiuuiiwq8<@ o4tyuuuuiiaiipuupututtutrwqqqqqrweew8555323133331,>,,,;:123111212236:33:qq69996uqqqqwwueee",
";;$:$$+$+++++=+++%$$%+O#O+++ X+=%%$##$$%&&%%&*&&*****&*;*&*&%*%%#OOX@%=$$;13131,123313345678965333>1:1:;:=::$$$$$$$$$$$$$$::::;;",
"uwqqusssqa6issiiyuuyuuiiisssssshfdgdfkllkkifpppupupiidfiiiufiiuur,.%rzncvbBZVVDDMZMAZZDBBDVDAAAAZZBBcBBBKKhhhJhABMMMhhssuuwqqeww",
"JJKAIJhhhKhhVMVVVVVBVVMBhAAAJJJJJBJZDKKJJJJJJJKKKKKLYPPPPYPKKKJPFqX-hZZAADAZDJAJZAAKJJJJDDAJAADKKKJPKPLLIKKIIQIWIWWPJKWKKIAJKLAJ",
"AAJAKhKKhKhKVVVVVDDKJJJJKIKKKJKKKJKJKLTULLULHULHDDSDHCVCGCGDHKYWFqX=rgsaiisafhhhhhhxxxhhlxhhxhhhhhhhxlmhhhhhhhhhhMhhhhhhVhVVAAVV",
"gfffsssssshhhhhhhhlhhhMhMMhMmmmmBbBBNBNblxlkllklkggjgfffjfgjklCWZ5.:yssauuaaisssiiiiiiuuuuuusiuassssffffgsgshggghggghhhhghhgggfs",
"gggfggsgghhhsssshfhhhghhhhMhmhmVxcbccNzllkkjjjffafgafififfgfjhVPB5 =yseetissssfsfsauuiuiiuiiiuuisssfssgsssssssghgggghhhhghhgghhf",
"sshhsshsssssssshgfsggsssshhhhhhhlzmlllllljlljjhghkkkkjkfgjljhfBYm1X-wueetussisfsaafaafaffiiffiffsggghhhhghhfhhhhhhhhhhhhsghhhhhh",
"hhhhhhhhhhshhhhhgfssssshsshhhhhhhlhhhhhhljfigghhgghhggljlhgfiijli$X;eueeusshhhhggghhhhhhghhkhhhlhhhhxhhhhhhhhhhhhhhhhhhhhhJhhhhh",
"hhhhhhhhhhhhshsssiiiiiiiiiiiiiisafiffifiiiiiiuutreewqqqq9987757w5$ -uueuusghlhhhkhklhhlllllzlxllhVhhxxmhhhhhhhhhhhhJhhhhhhhhJhhh",
"hhJhAhhhVhhhhhhhggsgggsshhhhhhhhhhhhhhggffiiiiiiiafghljhhghjfigVl:XO569euussfhhhfgffffffffifffgjhhhhhhhhhhhhhhhhhhhhhhhhhhhhhhhh",
"hhhhhhhhhhhhhhhJJhhhhhJhhmmmmmmVxmmxmmxxllllllllkhlvllvxblxlkgbPm:X$qe99qeyuuafffghhhhlllllxxlBBAAVVVAAJKJAVAAhJKKhKJhJKhhhhhhhh",
"JJIhJAhJhJKVJJhhhhJJhhhhmmmhhhhhxmxmxmmxxllljljhjljjllllklvlkgNWB;X1yuuaaafghhzllbmNNBBNBNBBVVVDAJADJJAJAJJKJAJIJhJKhKhhKJKJKJJI",
"hhhJhJJJVhJhhJhhhJhhhKJhhmmhmmhmxllllllmNmNmlxxxmxxxlklbbbvlkgNYB-X:ehghhllzcNbcNbNNNVNVBVVVCVVVmhVVmhVMhhAhhhhhhKhKJhhJhhhKJhhh",
"hKJhJhAhJhVJJhJhJhJhKhhhmmmmVmVVVVBNNmmNNNNNNNmNmmbNNxbllvlkkkBWB;X1ygfhhcbBBBBBBVBBVVDDJJJJJJVVDDKDAJJAKDDDKJKKIhJJIhKhJIhKhKhK",
"KJhJhVhVVhVhVVhVmmmmhmmmhmmmmmmmNNNNVVNNNVVVVNNNNNNNNNNNNxlljhNPB;X:ugghkkbnNNCNBCVVVVVJDVJDJVVKJJKKKKKKJJJJKKJJKhKJhKJJJhhJhJhJ",
"JhKhVJJhhVVVhVhMmhmmmmmmmmmmMVMVNVVNNDVNVNVNVVVNVNNNNmNNxxllhflKm;X1ugkllxNNCVVVVBVBCVVCVCVDVVVJJJKIKKKKJJJJJKhJJJJJJJhKKKJJKKAA",
"hJhJVhJhVVVhMMVhmmmhhmhmmmmmmmMMNNmmlhNllllmxNNlmlmlhllljjiuuwtie$Xo169euijjjklllbllbNNNNNNlNNbbhhhKhJhKhhhJhJhJJhhhJhJhhJJJVJVA",
"hJhhVhhhVhhVhVhMmmhmmhhmmmmmmmmmmxmNNllmNNlNNVNNNNNNNNNNNNbljfjlf- o169q0rtifklvvlvbllxbNxNNxmNNhJKhKhKhJKJKhJJKJJKKKhJJJhhhhVhh",
"KKJhJhhJMMMMVhMMmhhhmhhmmmMmmmmhmmNVVVNNAVNmVDVVVVVVVVVVCVBBNBBWV1X&wgghjlNNBCVCCBCBBBCBBBVDJJJJIJJJKJJKKJhIKJJhJJhIKKJhJJJAJhJJ",
"JJhJJJJJMVMMMMVVVhVVVmVVMmmMVMVJDVVVKKJNAJVVDJJJJDDVVVVVBBNxvbxPV2X&whhhllNNNNBNNBNBNbNBVVCDVVVCJJKhJKhIKJJKKhJJKhJKJJJJJJhJJJAJ",
"hJJJAKJhVMVMVVVMhVVVmmVVmMVVVMVVDVVVVDDNNAJVVVAJDVDVAVVCBBNxxlvYV2X&eghgjvbbNNNxNNNNBCCBBCBCNNBVJhhKJhhJhJhKAJJJKhKKhJKIhKJJJKJh",
"JJhJJhAAVVVVVVMhmmVmmVVmMVVVmmMVVJJJVVJANVDDVVDDDDVDVVVCNNNlllvUV5X-tkghjkbbNCBBBCVCVCVJHVCVVHHVJJJKKKIKWKKKJKKKKKKKIKJhJJKhVJhJ",
"VVVVVMMMVMMVhMMVVVVVVVVmVVJmmVVVVAJJVVJJVNJAVNAAVBVBBBNNNNblkllUD1X;ujjkjlNNBBCCVCDDHDDJCVDDVJJJKKIKKKKKJJJJKKKKVJKKKhJJJhhKJAAA",
"JVVJVVVJJVJVMMVMmmhhmmmmhVVVmVVJNNVVmmNNNNVJNNVVVBBNNNbbbxlkjggBx1X;ukgffhklkbNNBVJCVCCVVJJDJGJJJJKKKJKJJJJJJJJJJKKKKJJJKKJJJAJJ",
"JVMVVVJJVVVMMMMMmmhhhmhhhVhhhmmhhmmmllmliimiimiiiiiiiiiptw9521111+X;ikhgfgklvxNvxlNxbxNNNVBVVCVVhhKKhKJJJJJJJKJKVJKKJVKJJJVJAJJA",
"hhMMMMMVVMMhhMhMmVmmVVVhhVVhmhmhhhmlhmlxNmllNimNllxxNNNBBbblkklVm1X;ilhggkkvbNNNNNNNNNNBBBACVVVVKJJhKKhhJhhJhhhhhhhhhhhJhhhhhVhh",
"hMhMMlMhVMMlhMMMVhmmhmVhhVhVmmhNVmmhxNmxxNNNVNNVVVCJDJJCVVBNlvvYK5Xo696898990uuijlljlllNxlllllvlJhJhhhJhhhhhhhhhhhhhhhhhhhhhhhhh",
"MhMhlMslsssllslshhhihhhhhhiihhihhhhmNNlxlllNiVmmlNxxNNNNbvvlkkkYP5X%quuuuuifafgfiijjfjjjjjljklllhhhhhhJhJhVhVhJJVhhhhhAhVhhVhhhV",
"hhhhlsslMllslssshmiVhiVhhVVhmimihmmhlillhhilmliNNlvllllllljjkjjUP5X*uigggklllxNNNNbNNNNbNNNNNNnbhKKhhhhhhhhhhhhhhhhhhhhhhhhhhhhh",
"lhhlssllssllslslihiihhihihhhmhhmhhmilillilllililfffjijffjffigggLPwX1ufghhkklzxbxbxvlNxNNNNNlnbbbJhhhJKhhVhJhVhhhhhhhhhhhhhhhhhhh",
"hshhssgsffffssiiiasiassfsfsggggggggghhggghhhgghhhhhhhhhhhhgfffjKYa.5uggggggkkkzzhzzxhvxxhzhhhcZhhhhhhhhJhhzhhhhhhhhhhhhhhhfhhghg",
"hlhhslsssassssiiiassssssfffsggghhgghhhgghghhhhhhhhhhhhhhggggffkLQg.5ukffagkkkkkzzzzhzzhxvccxchhhhhhhhhhhhhhhhhhhxhhhhhhhhhhhghhh",
"shhssslsauuyuuqqqiissfffsisassgggsgggggggggggggghhhssshhdsssffjHYgX6ackjkkkjggjkhzhzhchhhxhhhhhhhhhhhhhhhghhzhzhxzxxzzzzxhhhhggg",
"sssiiiiiuueq9qquuquiuafdsiiiiiiisssggsgsgggggggghhggsssgssffffgcDt 1uhjffdfffasssapyuuuuuuppdggghhhhhhhhhghgggffffafsfasfsfssaia",
"33::+::==%%%&&-;$:::;;-==$=;=::;:::11336666qqq8qqq9qqqqqrqwqqq851% o*><>,>>-;-;;-><::;;:::::1:::$;;:3:::,:,,,,,,-:>:::::1::::::1",
"6663:++X.;7q89686366qyafihfhhhmhhghgppqqqsyuyeusypsugpprrqyapqdfipipdyufkjzvbbnnnBBnZhhhccvzhhhhhggghhfggghggggghggkjfjggfauqq66",
"IIKKKJs+OtGIPLLLPPIPIIIIKIKWTTWWTTTRRRRYTWWTT~QRRRRRQRRRRIIRRIQQQQWWQTQTQ!!WQQQQWWITIKDKLLPPPLLFIKKIKKKIIIQIRIIWTWTWRWWTTTWTWIIW",
"QWQQQQK3OpLQQTQTWWWWTIIILPKPPPIITLIRTRRRWWLKJhZZZhBZFFYYRRIIRTTYYUGDDDHGDVCDZDAAADDADDDAJJFDDDFDJKKKKKIIQIQQQRQRQQQQQQQ~QQ!QQQQQ",
"KIIIR!Y8oygBBnvvvnvvvvzzlkhzzvxbcccccccczvzvzvhhhhhhhhhhhhhhhghgkggkghhhghghhgggggfgffssgggssgsssssssffgggggggggggghhzzvBBCCSGHG",
"hhhhGRY8Xrgkjzjvzzzzjzgzzzxvvzzhvgjzzvzzzzzvvhccccchhvvhvvchhgggglzzkkzzzxzzxzzhzhhhgghhhhggggggffgggggggggggggggggggggggkhhjgjk",
"hhhhZ~Y9XrkvjjzvvzzzvvvcbzvbcvzccvvvvcvvvzhcgzhhhhcvvcvvvcvhhghgklkzbbbzzvczzcvvvxzzcxhhhhhhghhchMhhzvzvxxhhzzzhzzzjzgkjkkzvvllz",
"hhhhc!Y6XrgzzhhvzzzzzhgzzvzvvzzzzvvvvzzzhvhcchchnnncBBcBcBcBcchczzzzvzzzzzzzhczzhxzxhhvchxchhhchMhhhzzzhhchchzzzzjkzzzzjlvvzzbvz",
"hKhhh~F5otgvvzhvvvvnvvcvcnnBcnnnvnZnnvnnZcZZZccZZZZZZZZZnZhcchhhhhhhghvxzxcchxcccchhxhchhhhhgggghhggssfadappupddasaadsffjkkkbbzk",
"usrpfFZ1#ygzzzjjzkvvzzzzvvnnnnZZZZZZZZZZZZZcZZcZnZnZZZZZZBZZcZccBxcxvBBBcZbZZZZZZZDZDZDDDDDADDDDADZZZZZZBBnvzhggsapyyyreww00909w",
"hhhsqpq$#ygvvvzzzvzvczjvzzvvvbvcnvvnnnnZcvcZcccZnccZcZBZZZZZAFZZZcBcMMZBZcZAZADDZDJJDDZDZDDZFFLFJKDDDDZZZZZZZZZDDDSDDSSBBCSDDSCB",
"hhZBnYZ3+dfggjgzghzzvvccvbnBnnbnZnZZZZZZZZcZZZZZZFZZZFZZFFFJFAJAAZAAAAZJLKDLPLILLLKDJKJDDZDDDDDDDDJKKFDKGZnZZZZBnBZZnSCCBnBnCnbb",
"jjkjkYK2OafzvklvvnvnBBBBCBZVZBBDccZZZZZZZKFFZKKKFFFFKFZJKKZJJJJZZADAZAZJJAKKKPIIIKKLIILLLLLLLKKLKLDGLLLKFDDZnZSZnnnBnnnnvnvnvvvv",
"lvvklWK1oeyadjflzzvvbbnCDZZZDDDKFZKKZFKLLLKKKKFZLKKLKLKKKLKZJJJZJKJJJAAAAZKAJJJJDDKKKKJKKJJFLLLLLLLFDDKKLLDDZZZDDBnCBnnnBBnnCnbv",
"bvvkkEK1o86qttpgjhhzkzbBBBBBDZZDZFFKFFZLLLLTLLLIILLLKLKKKKKKKKJKLJJJJAJAAAJAKJJZKJJKJZJFKKLLKDLIIIIIPLFKLLLLFDDDDDGSBSBZCnnnnnvv",
"lvvkkTG2OffkvvCDLZGDSDDDGDKGKGDFFKZLLKKLTLLKLLLLLLLKLLKKKKJJZZZZAAAZAhZZZAZAZAZZFDDZDFKKFKLLKFDZDLLLLLPDDLDFFDZZGDGSSSDSSSSBnBbb",
"vvlkkTG2OffgzbCDFZDDDSDGDDDGLDLJFFFZZFFLKFKKKZLKLKKKKFKKKKKKKZZZAJDDAZJAZJAKJKALLJDLLLPPLKLIILIILDFLKLLKALLDDZZDnDGDDSSZCCCCCCbv",
"kggggJJ4OfagkbBCDAcSSnBDGDDDDFDDFZFZFFFFLTTTLLLLKKZKKKKLKLLKFLKKLLKJAJJDKKJKAAALJAKLLKFDJDAZZZDADADAZZDDAZZZZZccvvbbvvzvllkgfjgk",
"r9779tt-OdgjvvBCZSnSDDBGDZDDDDDDFFFFLIFFLKZZFZKKZKKZZKKKKKKKZLLLLJKAJJJJKKKKLALPZLLLLDFLLKFJDZZZcZZZZcxcxcxxzhhgfffdddfdfjkjkjfy",
"BBCNvBh>OffgvbncnBSnSDCCSZBDDAADFZZZcZcZZZZZZZZZZZZKKZZKZZKZJKFFAAZZAAZDJAAJJAKKZJFJZKYFKKKKJFAFAZZAAZZZZZZZZZZZncZbnZnDBSCCDDBC",
"BnBbBEH<.qwyaffgkgjkzxvvvvzzbcvbZZZZZZZFZFFZFFZZLKZKKFZKFFZZZZZFFZFIDKZhZhZZZAJZBZBBZZBccxxcccBccccnnccvnBcccZZZBBnBBBSCDCVCCVCN",
"bnnnnEL2orwqeypdghkvlcvvvMccvvvccccnZZZZZZZZcccccZZZccccZhhchZcZhhhhhhhZZZZDhhDhcBhZZBcZZZBBccvcnZnnZZBcnnBncccccvcbccbbnBCnBBBn",
"Cnnbb!L2offjbbzbccnncbBBBbvBBnBbccccnnnZnZccccvvhcccccgchZZhZhchhhFhhhhZhZhDhhZhZBhBcZBBcxvhvccccnnBnZZBcZBbnvcccbvzvzlzzzbnnnCn",
"BBnnN!U4odfkbnnBBnnnnbbnBccvvzzzzvvvvvvvcvvvccccchghhhgghhhghghhhhhhhhhhhhhhcZhhhchBhhhBxxccBhcZccnnnvnnnbcbnnvcbbbzzbbbBCVCCCCn",
"nnnnC!U7.dfvvnnnCCnCSZnnnnBncbbnZcvcvcvvvvvvzzzggsssggsgssssggghhhhhhhhhhhhhhhhhhhhhhgggvhhhhhhhcnhccvxxxhzxzzzkzvzzzzvcnnnCCCBn",
"vbnbnEH7OyfjbbnnnnnnnnZnnbbBccbvhchczgggggggsgssssssgssssssggggghhhhhhhhgggghhhhgghhgggggghhhhhhhhhhhhhhghgghhhhfhhhhlzcbzvcBBCn",
"ppuuukN2.0fyfjfffffjfgggjfffggggzggggggggggggggggggssssysssssggggghhhhhhhhghhghhggssuuuussggssssfsssasaaaaauuadaaaaauaauytttyupu",
"yyew071o %4w8w00ww0werrwww89888wqrryrrrrqrqrqq855<31:::===$=$$=::3qqqqqqqqqqq966;:=;::<15569wyuauytreeryuuyyyuuuaaayyyettteewyyt"
};
