/* XPM */
static char *default_steel_block1752672166[] = {
/* columns rows colors chars-per-pixel */
"128 128 78 1 ",
"  c #443E3D",
". c #46403F",
"X c #49423F",
"o c #464242",
"O c #494445",
"+ c #4E4945",
"@ c #474548",
"# c #4A4749",
"$ c #4B4A4D",
"% c #504947",
"& c #514D4D",
"* c #57504F",
"= c #4E4D52",
"- c #514F52",
"; c #525155",
": c #5A5556",
"> c #5D5857",
", c #55555A",
"< c #59575A",
"1 c #57585E",
"2 c #5A595E",
"3 c #625D5D",
"4 c #5C5D62",
"5 c #615F62",
"6 c #5F6065",
"7 c #5F6168",
"8 c #626266",
"9 c #6C6565",
"0 c #6F6867",
"q c #63656A",
"w c #69676A",
"e c #66696E",
"r c #6B6A6D",
"t c #716664",
"y c #726966",
"u c #706768",
"i c #726C6D",
"p c #796E6C",
"a c #76706F",
"s c #79706F",
"d c #676B70",
"f c #6B6E73",
"g c #716F71",
"h c #6E7176",
"j c #6F7279",
"k c #727275",
"l c #7B7474",
"z c #7F7877",
"x c #72757B",
"c c #79777A",
"v c #76797E",
"b c #7A7A7E",
"n c #807977",
"m c #817C7D",
"M c #777A80",
"N c #7B7D82",
"B c #827F81",
"V c #7E8185",
"C c #7F8288",
"Z c #818286",
"A c #8A8586",
"S c #838589",
"D c #8A8789",
"F c #86898C",
"G c #898A8E",
"H c #918E8F",
"J c #8C8D92",
"K c #908F93",
"L c #8E9094",
"P c #919296",
"I c #949599",
"U c #96989B",
"Y c #99999D",
"T c #9C9DA1",
"R c #9FA0A4",
"E c #A1A2A6",
"W c #A4A6AA",
"Q c #AEAEB2",
/* pixels */
"00uykfgrk0kkkkkvbvNNLx8$$ ;=$=16qgxNll&5&o:zhxhkhhkfffhhfjddffhdfdhxbVVVvbLc1$$=$o$,2248wrhhjjvjVMMVNNv7,@@---4qNTMMbbbgkgifrr00",
"0tuiarrrrfkkkkkxvNvVLbf4$.$=;166jcMzn:fKF5oDkkafrhkerefhhhfhffdjddfhcVVVvvvJZ1;$=$O$,4214qfkhhjVvCCVNve1@@==-4exTBNBNxcxggfgrirt",
"0uuukrgrarkfffkkjvvvVVj6=@+16416fxNlm%JJc5$mifkirffrrwfhfdheddddffeejbBbVvbvbGq=;$=#O=4446qfhhvMVVVVvf4$#$=;5qxTFMNBNcxxkfrrrrr9",
"0t0ugkrgrfrkrkfkjxvbNFve1$@,666erxcpD3JJk8+pkgkrrrrerrfffddddd7deffefkvvvbcxkcJ8;$==$#=1446efjjvvCvvf6-$#=;4dkKFNNNNNclgfgiffaru",
"uuuufkffrkkrrkhhjvvvNVVf6;-&4666rkkizz:kw-gpkgfrrrerrwerfdedeeeeeeerrrakccckxkkZ1==$$-$=146qhxjvvMxf8;O$$-qdjNINSNNMNMxgifffrrkr",
"uuuuggggffrkffhhfjvNbbJxe,4+;666qkcizBAngbnpkkkrrfrrwrreedededddeewrriraklzkkkfkf;=$$,=,164dhjxvvvwq1#$=,qffNINNBNBMcMxgffifkrru",
"09ygfgfffrfrkrfhhxvvMvJCf61;&666qrckplssnaukkkkgrwerrwreedddeqddeewwrrrigmZlgifgf4=$$=@,144dxhxxvf61$$=,qfkNPMNNNNNMcgggafarrrr0",
"w0urgfffhkfekfdhfxvbNVVLjd1=X166refvlcayppkkckcgkrwwkrwerfddeeddeewwwris325O+uggf4===$@,144dxhjxhq1$$=2qfjFINNCBBSNMxxggfrerrrhw",
"frgghrhfrhfrfdfhhhxvvvbJxf7-+$46qwekkzcapackkhvjkrrwrrrrfrhweeddwqrrrras&GLc@3zrf8;$=$O;,46ejhjjw4=$=,qdxPGbNNNNNNNcckgir0rrrweh",
"gkgrrkrrhrfhddhhhxxbbvvVCf71=@;668ehcbclpakvhhxMkrrerrrereehddwfr0rrriaarJbq#:srk8;$$OO,116eehhh6;@$-qdFTNNNBNNNNNNxkfrfrrrrrrrr",
"ffgfxhkkkkffhddfhvvvvvvvJhe6;++66qeexccryskkxkjjxkkrrwrrhefereeefwrriislrFxw&>uix8;=$oO,146qrff76=$$4hLFMMNNNMNMbvbckrrrrrrwweke",
"dgaakvcccxhrdddddhxvvvvbFNe61$O,68wehkcapakkkhvjkkkkhrrfrxeeeeerrkkrrail9wr>&l0rke;=$.o1166eff74;=--5ZNxkNNBSBNNbNxkfrrrrrewwrwh",
"gxlkxcbxbckhfeddfhxvvvNvVCd76=$$167qrhkhiixhjjjjxjxkkffrhwrfeweqffaaarranm0aBtrrc8;$$  44667df7;==7hdChhMNSCCNNNvxxkrkrrewwwweee",
"xbzcxcvvvvvxhfdhddxvvVVbNLj76,=@;667erxcaxhhjjjjvxjjkkfffrehffefkkrhkhaattss9turb4-$$ @447dhff6==-$=4RhhxZSSSSBNchhckkirrrwwweee",
"cbbNbvcccxxvxhhfddhxvvVNvVC761,++666qehvhhxhhjhhcvvhhhkreehffdffkkkkhaaf09t9uirfS4=$@ $$=;666Th==$=44SjvcNSCCNNMxfrrkrrwrrrrrerh",
"xNBbVbxxvbbbbvjhdfhxvNVNvNC764,;O:468eevkxvjhVjVvvvVxkffeeweddexklkkkafai9090kkaJ4;@o @$$$=-;-,==$$=4dCvNMNZCNMMhkkewkrwwrrerkhk",
"bVVbNvjjvvvvvxjhhhhxNNVvvNNj641;@@116eehkvvhjxjjvjvvvvhfhffdddfhFxkkkrrir09900kkA:=$@ .@@$$==-=$$@$$;6TxxNVbVMjhhfkrrwrwrwrrfrgk",
"bVVbvvMVxvvVVvjjhjjvvvVNvvvxq44,+@;666dhhvvvjVVjjjvvMMvhhhdfddfhxDblkkrkar99yrrbr,=$. ...o.@$=$@$$$$16TxxvNNxjjhfffkrrwrrrrrrfkx",
"bZbvMvvVxvjjxxhhjjxxvvNbvxxNf11;=.@16eefjjvvxjvxjjjjvhvvhfffffhkxZabkggfrr00arkF6,$$  ...... @$@$@$$11VvxvjxvjhhfdffgrgrwrrffrvN",
"bNNvvvjvxvxvhhjjxxjxvbNNvxvNN4;;$$.$166dhvvvvvxxvMvjvvhvvhdddhhxxbk:cbrirrr00krP1;=$  1;@$@o   @$$@$=4hCvxxvMvjddkfgrfffwrrfehMV",
"bVVvvjvvxjxxjhhjvjjxvvvvvxvhf4;==$@@166dfvvvMvvvjvvhvvhvjhheehxkvvb>+fBhffa00rhF,,$@  1$$@$$$===$@$@$14UvvvhvjjffejdffhdeerrkxVV",
"NbVvvvxvvvjjjjjjjjjkvvkvxxjhe;;;$$@;116dfxvvvvjxhjvjvhvhhhhhhhhvvvbr++>cBvfa0fbf,=$$  4=,,=$$$$$$$@@$=1CvNvvvvjvkfdfhhdfrhhhhvbb",
"VvVbVjxxVjhfhxvjhjxvkjkhhhNN4=;;$@@@166dfhvvjhjjjjjjvvvhhhddhfhvvxvC6+++>fZAafV4,=$@  611eC6$$$$$$$@$=4fVvvbMvjjMxxhhjddhfjjhhvV",
"vvvvVvxvjjhdrhjxhjxjhffjfvj1=$,=@@=1166dhhvvMvjvjjjjhhvhhdddfxhxxxvvV6&XX&&2qxVV,=$@ @67646d1$$$$=@@+;44UvbvxVjjMMMNhdffhhxvhjjv",
"vvvvvvvvhfffhhjhvvhfjhjfxf1$$$@o@=116117dhjjMjjvjhjjvjvjfddfhhkvxkxxvvh,X..@$$=,$$$o@@61dMvhdI71$$@@@=11LvvNVvvvvvvvCxhhjvvvhhhx",
"jhxvvvvvhhfhjjjxvbhkhhf74=$$@ o$11111467djvMMMjjhjjvjvjvfffffhhvxvjxxvbVe+@o...o@@@  =1667jjhCId=@@@ @;4xVvbNNMvvvvVJVNjjxjvvxhv",
"vhxxvvvjhhjjjjvvvxhvhf61=$$@o@$111116177djvjMvvjjjvjvvvvhffffhvvkvxjxvvZFV;@$@       =4467hjjhjh=@@@@@$16LbxvvvvvxvVZvNNvvvvvhvv",
"vvxxvMvjhjxvvjxvxxvvVk,=$$@+o;,1111146edjvvvvvvjjjhjvhvhfdddhhxvvxxvjjjvFCVh$$@.    @11467djjjdd1=$@ $$11NbxxxxMvxVJvVvVVvvbbvvv",
"MvvvvhjhhjvjvvxxxxvSx,$$$$@@=,111;1116ddjvvvvvvhvvhhhhvhhddfhjvvvkjvvfhhhvVvf6f&@@@oo11166djjjhhd71  $$$,djhfhvjvVCFvVNVNbbvvvvv",
"vvvvjvhhjjjbbvvxkNHq=$$;$#+;,,11111177djdvvvvvvvvvhvvhvvjfhhfjxvvjjvxhjhffhkfvne@@@ @14467djjxxjdq6 @@$q;FfhhjvvvCCCvVvvvNVNxxvv",
"NMMvvhhhjvNVNvxhVJ1&=$$$@#;,,16,11167eddhhjvvvvvvhhhhvvvxhhhjjvjxhvhjjjhhfhhvvL2=@=@@11166fdxjjjfeq+..;C$VkdfhjvHvJZVNvxxvMvvvvv",
"vMvvjvvhvbbbvxhNJ;=&=$@@$,11,,1,11677ddhhjvvvvvvvhvhvvhvvxxxjvvxvjvvvjhjvfkvvZb1=@$@$11446hhhjjMfe7+@.4=$&bkffkFkbZNNVMNjvvvNVvv",
"vxvvjxxvvvvxvkkf==-$$#$$-,1,,,,=4447dMdddMdMMMMMjjhvMxxvxxvvjvjjxhxvxxjhvjvxvFf1$$$o=1461eddhhhhdd71=X1,==@5TNFg*BMMNNNxxMMjMMMM",
"hfhvvvvvvxxhhf1&-;==o$$;,,,1,4444qqddddMMdMddMMMjjjMMvjvvNvvxxjjxxvkxxhjjjvNbJe;$@@@=1417edjhhhjfd7e6=..@$$=4LB%>NkNMNNMjMxjMMxD",
"8X*Nvvvvxhxke,=;;=;@$=;,,,,1,44444hMdMMhddMMMMMMjjvvvvjvvvvvxjjjxxvvxxxxvvvNVFe*$$@o144177dddjjjjdd7761X.@==@=o 5NkMNNBxxMxjxk#r",
"GeXVvvxxkxxe1;&&====;,,,,,,14474qMdfMdddMddMdMMfvvxVvjjvjvjjjvjxhvbVbxxxxvbbVFe=@$$o144477djdjjjjjde6e66o o#@o  :JNjMMMxjMjjj&xK",
"x5XVNvxkxNk;,&;==$==1=,,,,11444qdMMdMdddMfMffMfMxjvjvhhxjjjjxjhjvZb*O>ZhxcbvZN8=$@$@14167edddhjhjjj7767q5@ooXXX O<JJkjxgkjjkN&JF",
"b8+bvvvxFk,;*-;;===,,,=;1144qeefdhMdddMddfdMMffMvvvvhvjhjjjjjjvvbrqCFh3DxvvVSx5-$@@$16767ddhhdhdhjhfde6feq@o  ++#*55KMjxMkhjF4JJ",
"*XVbvvvUr::-==;====;;;;,1146ddfddddhhdMMMdjfjdMhvjvjvhhhhhfhjjjhN,GCZF$wBvVVVx4$$$@=11677ddhhhhhhfjffdf7e55% +++%-445cNjMjgfMB2-",
"FFkvvvP0>:-$$;&-;1,;=;=;44qeqqedMdhhMddddMffjMjMjvjhhjhhhjjjjjjjA:Zkek++kVVbVx1;$$@141677ddhdjjhhhfjjfee5eew: OOo%=,44rKNjxxxxSI",
"vbckZG8><*$#$@$,;;;;=,,468qqqqqqfjjjdjMfdMMdMMMfxkhffhfhhfhjjjjjnw*r2+@5bNZVVe1+$$@11446eededhhhhfjdMdddq7qdq4=O#%$-:;<5gHBxMxkM",
"xkxHG8>:&=$@ o,1,,;;;4146qq8qeeedjfjjhdhMddMfMMjxhhfffhhhhjjjjjjam5XX+fFnVVVbe1;==o144667deeddhjhjjjdMMdddqdqqe,OX #-;;455gHGMxx",
"khck5>;=##. o$$=;61,4111468qqqefdfdfhdfhMMdfxkhjxxffhfhhhfhhjhvvvicNbnnnVNVbv5:$$$@1466e7d7eddjfjdjxdddMMdM7qq4OO3-Oo$;--555gPBx",
"xh882;=$#...@,$$=1Se44441468qqehdjhdjjhh7ddMkxxxxhhhhhfhjjjjhvvvNNcnaaamVVVVr3$&=$@1466eddeeddhjjjjjMMMMdMMdqq=o%==<;#=,::<55wJN",
"q42<;=#O@@@o..$$==1Cv62411168qefffjhjjjffffxkhkkxkhxxhhfjjjjxvvVNNVZnanSFFVbk2&;;@@4666qhhdeedhhjxjdMMMdMMd771O $$-,74=@-*:3545B",
"2;,;=$#$#=1$.  $===4ZS6144426ehrhjjjhhfjhfhkjMxxkxxxvvvvvvvbvvbVVVVFBnBJLCFvq1*:;@@4467djfdddddjjMjjdjdMdMMd7,o@$;=47454##=--:4B",
"<;-=+#$;;=;=$   $$;;;cLq446488rfhhhjjhhfhffhjvxxxxvvvbbbNbvvbbNNVbFVnnNSFZf52,,*&o@1467djdddddjhMMMMMdMdMM7d7$o@=;,574qq5,###$-K",
";2$+@=;1======o  o$--,6Gv66666qehjfMxMjhhhhhxxxxxvvbbNbNNvbbbbVVVVCCbnZBk8,2,>*=1+@147qddddddjjjdMMjjjdMdM774@@$=,,qq7qqq5,&&##M",
"$%o@$,24,=-=47f#   $--,<NJNq748qejxvNkxhxjjhxhxvvbvvbbNbBbbbNNVVVVVCVbgwr>,,;*&o,=+166eeeeddhfjjjhjjjjjfjjqq&o=$,4j5547774744===",
"$oo=25454,;,44Nj=o  o$=114SBq8qqqdxNNvxxjjjvxvcbbbbvbbbbbNNNNZVZCHLLBrw8>1;,*+..@$@16qeeeddddjjMjjjjjjjMjxd<o@=,4MMqq447544qq45-",
"5<,4544,141444jPq;o   $-,,,dvqq8qwfxVVMMxvccvvvbbbbbvnNbbbNbNNGIHSvfr882<,1,..Xo@==166ddddfdddhjjjjdhddjjeq&o#;45Fqqe45477744444",
"4qq5444<444747fMYd-@   $=;,18rdqqdfkxNNNvvVZkabkvbNVVNNNbNNNZYScxkw844>;;&+.o-6411466ddddfdddddhjjjjdddjjd4oo-,5dKqfeeq574454444",
"4444q444747qddqdNTe-#    #==,,ddqfxxxxNNNbk2w58FZVBbbNZvbbNSIhewe862>>;$.O-166666466eddddjdeeedhjffdhddhfd,o@=14IMfrkBcw42444417",
"4474qq4474qdfhjdfZTk,$o   ==-,,qjggxxcxNVz8HJJ83SnbbNVVbbVJPee863>1*@+@+,666666716677dddddddeehhdfffdhjjdd&#$;4eKjjw55*-74441514",
"444447e44qqqdfjjjfNEN;=o   #=-;,dNBjxxcxVikScVkXanavNNbVGLje8562,&&+@$146676666676777ddedddededhjdfdhfkfd5oo=14MBjk:kKN$-nw,,447",
"4444qqqd7qeedhhjxkhxEFe=    @=$-,qUIxMxcbz;ve8;XavkabnSHhh84>2>$X+;14446667766667777dhedddeddddddfdjfjfdf;oo=5qcjgl4KBM<%nu77447",
"qq7477qqdddefjjMMxhxxJRf,O   ##=,,4GWNxccc3&2+#9BaaknDkr684>;#X.&:6666266667767eq7qqdddeddddddhddjdhhdheq+o$<5fgMgy5KNd:&ngdd777",
"dfdMqqdhjjjdfjMjMxMxfjxWG5O  O#==-,1ZQGMclBg>>zZaaaZBw6844,&o.X>668q66666777qq77q77dhdeeedhhdddhdjdhjddd2 $<4dxxcMp3xBr-9trdMMMd",
"fjjjjjjjjhjMjfjMxxMxxxxfLRk$o @$$=-;1fWLkpppspaiiaGaq6421$&Xo.,6e66qq66667feq7q7eeqedddeedddedfddhjjhede$o=,5jZxMxxgp*<lnuMfMMdd",
"fjfjjjhjdMjjjMfMMxMMMMMxfCYf,O.o#==;,<eWblplsyulmkq842,;+O+=;o@$;V6weqqqqqqeeeqq7qqeddqdedddedddhddjdd77o=;4qBNMxcMjiiputugMdddM",
"fhdjjjjdjjjjjMxfxxxMMxvkhhNJh4-.@#$-=,1qWmsaslmw852>,$$@$;141$o@$hVejxrq7efeeqq67eqdddddddqddddddhfddde@O=;qdGMMNMcxj5uudfMqdfdM",
"ddjfjdhhjjfxMjfMxjjjhMMxkkjxPf;,$@$-==-,qYbzcrw82>1=$+$,111411@@$;NNrvjhq7feqeeq7qqddhdddhdqeeddffff776@#=,qcGxcNNNNMgiufMfMdddd",
"ddjdjhhdjjjjjjjxMMfjfjMxxjjfjNd4=-=$=--==4qwww822&&+;,111161111@#$,Gvjvxrefeeeeqeeddffffhdddeedddhdee7o.=;4qJBMMMMBNMgguddfffdff",
"dfjjhddjdjdjfjxMjjjhjMMMMxjkfdd4--=$o,==--:233:$X+=,,11,1616411;O$;1HVvVxhrfffffeddfdffjddddfdeddffd77@.=;4jPMMMNNNNMMuwMgffffdd",
"fffhffhjjfjjxjxvvjjMMNCBNBMMjqd4;===$ $=;==;,=$@=;,,,,1144qef1,,;O$,4LSNNxhhhfhfeeefefhdddfdhdddeede71X@;,6PNvvbNVNbNvcrkhffddfd",
"jjjjjjhjjjjjvvvvvMNNNSNNNNMMjMM,==$$$@ o$==$@@==;,;,;,,15erfvk111;#=18GLZVMxxMkkffefffdddhhjfdddded76=.=$,eLbbNVVCVVNbcafvjhfdff",
"jxjxjhjjjxvvvjvVNVVVCNSNNNMMSGd,;$$$$,@ @@$$@==,;=;,44148fhffVq641-#;4qSPCNMxvxhrfhhddddddddfffeddeq6OX$$1CvvVVVFCGCNbbavvvvvhhh",
"hjxvjjhvMMVCMMMSSSCCCNNSMGJNj4,,=$@$@@@=$$$$===;=,16468qdjjxkfFe41,$$;8qSPZNMMxMjheedfdfddddddddede66.=dv6vvvbCFZCFLFZbvnVvbvvvh",
"xjxxMvvjMvMMVNVVFSZVBNNNKFj54;;==$@@@===$$$$=====;466qefjxvvvjvGq4,-$$,4qJJZSvvxxjjeeedfffddddddf766;+x6$;6LVNVVFCFCLJZnbVVVVvvv",
"VVMVMVCVVVVVVVSFSFZVNNNPBjr4,;=;=$o$@=@@$$=====;,467edddfbvbNbhvGq41=$$45dZVSSvvbvxjehjhdhhddhhfd711,$&$$$;dLUVVZFFCCJGSVNVCbNNV",
"CFFCVVCVCCVVGFGGLSSVBBJNhq44-$-=o@$$=@=@==$@===1147qddffdhMvNvvvbG841=@=4qrvVVVvxvcxhhhfhdhhdfjdd76111=.@@$$=xYJbbVCFFFJGCZVVVVV",
"CFCCVVVCCCCCFJJLGGVVGKMjq4;=4-O@@$====@=@@=,,1414qdddfdhddhNNNbvkNF81,=$=4ehNVVZVvvxxfaZVvjdhdfddf664444$o$$$$,CIbbVCFZGLUFCCCCC",
"FCVVCSFFZZSSGGJFSVVSGxfw5,=4-O@@$,,$$$$$=147eeddddddhdfffehjvNNvNxSS4;,==,qqfFNSGVMvxp32$#8lhfffdfe764644+.@@@=,fJLVvVCCCLGCFZZZ",
"FFVVbJc:;>GZZFFAVVvbxhw84-,#o=,,,,,,=,16ddjdddddjjdddhffffhhjvVNMNxJN4,,#=,4ekFSSCCbc28LA:Omfhffdddhdd6444=+@@$$=16MCLLFZFFGGFCC",
"CCCSBwvLLb:GZZNNbBjahw82-#@@<4,;,,1167eddjMdjdMMjjjdfjjfhfhfhxvbNNNgZk<;,==,qexFCCZVB*LLb4olrfddddfdfhd6666,Oo+@$$,166xLFZCJGJFZ",
"CCCLA>JFSJ&2ZZNbVxh822;$@o=7544416667djhhjdhjjjjxjjjffhjhddddhvvNNNxfxj;,,#=,5exGFSms:GZr2Oirffddddddfdd71411;@XO$&=146dLZCCVVJV",
"VVCCD>Nhfr+&zbNNSr2;$$#O@;447444667dddhhdhhhhhjhjhjjxjfhfdddfdfvNNMNxdN4,,;#=,qwVFVbsy8Vh:3aifeeeeddfdfed741142=..+$$=16VCvVZZZV",
"NNVVnz*e:+#lzcNPr2&$$$o&444747446e7hhjddhhdjdhjhhjhjxvjhfffffdfVVNBNNkgG4,,-@=4qeSSVlsn3:wntffeeddfhddefffq6464qq=o.$$=1qvbfVNvv",
"FbVbaml*&;zmlNTf4;;$OO*6744444447dddhdhhddddjjjhhhhjvjvhffdkfbZ8$+NNMNxfd;1,,%-5qwGVZaulla90fffhhfhhhhhhjfjfdqqhdde+.@$=;599bTRU",
"FRCvlarnsp0pbEk4;=oOO,4q7744474ddddddddddddhjjjjhjjvjvxjffddab*bFS<BmMxM4,=-,-$-39eFVba0iikjhxxxhxxxxxxvjvvMVLCx==2;&X@+=$>0566f",
"ekEFBca000aFDr54<$ $4544e74447dddddddjdddddjMdMdjjjxxxxjjhdd0kkFSFr+zlcxh2#@;=#@*85fJbbckikxxkxvvvxvvvvvvLRN7,;==@X@$=;$=$=,3598",
"8erAHZcaiaAa532:%o+44qq5q5q47fMqdhhjddjjdMjMjMjMjxxMxvvxhhhh0nebrf8o5gxxv1=$;@-1O:95bJbbpixxxvvNNvMVvVvGWb711=$$&==,,;,,==&=,395",
"93800cAkaa335:&.o;e844eq744dddMfdddjjjjjMdjjdMMjjMjvMvvxjhdhrAXd8-$oklNxM,$$-.;12*>85VUvgukMvbNNvSIYTLbe4,==;$;,,;,,,,,;,,$$=->9",
">958900l05331&.O<;1qdeddqq7d7MdfhjjjjMVjjVVMMjMMMMMMvvvjjhdddkVX+o%AzcbNh1$$;o$;25&233JIgfkxvvSTLh262;;;=-$$$=;,,,,,,41;=,$;-&=:",
"*5556595333,$O+&e==,cxhwffeqfeffdjjhVjMMMMVdMdVMMvvvMvvjhdjhdVeblupigbbbe=$=$@$=:52&<:<JKfkNRQA82>22>:*&+@=;,;,,,111671;;,&;74=&",
"=,355433>;&@O&4$+1$,8LxhfMfeeqqjhvjMjVMCMMVMjMdMMvjvjMjjdhddddddut0akNbN6;#=@@=;,22:&:*<BTTWc8233>:>::*&=,1141116766dh,=$&O1,41,",
"1<;<55::2*+@*6q4$O$-6bJjjhjreqddhdjjMMVMMdMMVdMMjjjjjjjdddhddddd9tixcvNc1=#=o@;;1122&+;&,E5;::2>::%+&;<2111<4666eddddh,==$o6;141",
"4141:<13>*+<7qqq6$#=1wAFMMjffdqdddjVMMMCMCMMMMMdvjjjfffdhddhdddhiyixvbNd1-$=@$;8q1422&$==P=$$::*&&$144111146667dhfdhfN,==$ 4;114",
"44444222:$2qq7qqq4#+-1qFSxxhhfd7deeMVjVVVdMMjjjdjdddddddfdhdffdriticMvv81$,@@$,eq61153&&=k&#$*&;3111114<16e7dfhjjhrhrS,=;Oo,,476",
"eq45244;;288qeqqq76$+$48SSvxjjfddddMMVjVMVjMMddjdhdhfhffffhfffhgryixNbx4;$,@@$1jeq61484-$v$&$*:>424141446efhffdhjhhjjF1,;oO;,vff",
"kdq48554wqeqeeeqqqq6$$$,qZFVMvjfddjMVMVxCMMMjjMddddhhdhhffdhfjjjf0ixNVh1==;o$=wqe77646q711=-111,11447qeddfhhddffjhxxbF,=;.@;3Fhh",
"xxfeerqeeefhddedeq7eq=#$;qvCVvVvhjjMMMxvdVddjjjdfjdddhdffjffhxjjapkvvFw,$:$##-V7eeeeq6q784141114148qdhhxhhfrddfhhhjvVb,=;o$;6PvN",
"Vxvfffdeedhjkhkhhwewq6;.*=$;;6jxMxMVVvvjjjjjjjjfhjhdfdfdfjjdhjjjjakbNZ8=$,@@#1bqe7edf7d7e574666654fjxxMxxhhhehxjhhxxVk<&1.=;qFNV",
"SNNxjjhfhvvMMMNMjeqeqq6;O&=$$,7vxMxMMVvvvvjvjjjjdjjjfffjddfjgjjMxakvZb6-$-@$$66qe7efhxdjfe767eqfjhjxxMxMxkhkjhrjhhhjSe,-;X=,jVNV",
"SNNMjjxxvMMMMMMMvjhqqqq2-@#$==,eCvMMMMVvMvjjjjjffffjjddhjdfjxjjjxlxvLr2$=$@@$q67qqeehhdhhjfdfjjjjjxkxxxMxxkhhrekhxxhC7,;-X=4ZvNN",
"ZNMMMMMjMvvMMMNMVVveeq662,@$$=;6jFVMvvvVvvMjVjjffjjfjfdjjfjjxMjjxkkvSq;$$@@$=d767qehdjhhhxxjhjvxjMkxxxxxxcxhehfxxjjxv1;-.+&5YVVV",
"MMMjMjMjMMMMMMMMMNNMMMM7,,=====,6hLbvxxvvjvvvvjhhhhhhhhhffkjxkMxvvvCv4=$$.$$16qqe7ejhhffhhhxvhfvxxgcMxccvkkhfkhkjhxjb,==.+=6TVVv",
"MxMMjMjMMMMMMMMMMNNNMM777,,,=@==16hLVvVvbVvMvvvjjjhhxjhxffjMMjkjvMxLd1$$@.$=q4qqdedfhjhxxhkhkbakgxxBcNcNkkxxfkhkxbvxf1=& $$fJbNN",
"MxxxjjjM7MMM7MMMNNBBNMMM7,,,,$==;16qFVvxvxVvVxjxjhjhxxxhfkMjjxxkxvNJe,$@@+$=4qq7ddffffhjjhkfkkkkggcNNccxbkkkhffhvvvf6;== $;xVvNb",
"xxMxjjjMMM7MMMMMCNNJNMMMM,,,1,==$;16rFZcvVVVvvxxjvhjxxMvxxMMkMjMxxCV6;$@.$$46qeeedhhfffjvhgkgfkkgxccccxckkrffkfhhvvf6;=+o$=MvNVv",
"eMMdMfMfMMMMMedMNNLNNNNNMw4,11,--==,6eGNvVVNNbvjxxjxMMNMMkMxxxkxvvbh1$$@.,$ee8dqefhdjfdfxkkkgfkgggxzccxggrffrffhxvvf5;$X+=4Bvvbv",
"dMdMjMMM7M7MeMMMNNNNCCCCjj7411,-*1=;16eLVvBVvNvvxkxMMNNxMxxxxMxxvbbd,$$ $$,d88eddjjjhhfhfkxakgfakczbxggkkgkffffkxvvr2;$.&-4Zvvbv",
"MdfMfMMMMMM7MeMMNNNNCNNNMgdq7,1<&-:;-;1eFbVvVVvvNMNNMMxjkxxjjxMMvNvq;$$ ;$,hqqedfjjfxffgfaggkgikccbkxggkvfkfeffhxkbh6;= <$6bvbvx",
"fddMMfMf7MMMMMMdMMMNNLCCBMgr741,1$&1,-,6hCVVNNVCMNMMkkeeedfjfxMMbbh4=$oX;=6jqeedjjjjhkfgkkgfggkcbzzcggggahhfrffxvvVf6&&.4$qvvbvx",
"ddfMMdMdMdMdMMMMMMMMNNBNNNMMM71,1,$;;>;,qkZNSNNBSNkddqw4q4eqdMMMNNf1$$.$$=vededdjhhhhrkagkirkiglbbmcggfkkfffffhvcvSw2;+X,;kvvxVx",
"fMfddMdMMMMMdMdMMqMMMNNBBBNN7e71,,;$;-,;1efMSNNNxfde5;<eq46qqhxMNNd1$@.=+1FddddfjhhhakkkggirkaalzbbcgxgkkhhhffhvvvFw4;O&;,hbbcxx",
"eMMdMMfMMMMMdMMf7MeMMMMMNBNNMqd71<;,+-&--15xMMMgfwe-$$5qq6q6qqkMVjq;$oO$$xkefddfhjhkkrarkiagagiglkcxggkfhkxeffhhbvGq3;.;$,hxcxxh",
"7ddddddMqMdMMMdMMMMMMMMMNNNNMMMq41,,,$$X$,,4djdff5$+o$$$,qq7qqfNRd1&@o$$,C8dffdvhjhxrarkiiikkiirgkgkkxfkxkxhfkhvvVZq1- 1$1ehhheq",
"77qqq7qe7dMfMdMd7M7MMdMMMBBMMMMrr4,,,-$#o-=-,5q5;%#@--,O+-q5qqdfU6,o@@$$fvqdddevhkfakaraiirkgaarfgggxgkxhfheffhxNFx6,@o4=>efeee8",
"74444744777ddqdd7M7MdMMMMBMMMMMMfd4,;;,-o -=-4,#$-#,g5==+o+57qeMh,=.o$$=VeqfkdejkkfaraaaiiiagrffgkkkgkkxfkhffhhvNLe6-XO6$,88er86",
"======44447747qd1M7MdMMfMfMMMBMMhf841,,;- oo@#o=,=,xx4114@o$6qeN4-$o@$$6beffffffhhafrrakakgiagkkkxxgkhkkhkrefkhvvLr6; -6=,88q8>1",
"==$===@$$$@==,,44777dMfMfMjMMMMBNkeq1,;,- oooO-==<Ngdq54c4$ #qek-=@o#=$xedjhhffvjfrar0faaakarkkaxcxxkhfffhfffhhvvGw2$ 1,$488526-",
"==$==$##$==@=##==,7MdMddMddMMMBMBMf5541;,o@@@,--1Cxfhhf8wr;#X#77=$..@=&r7hjxxhhhkkr0raaggavgggkkvvvkvhkffffeffhjcFe1$ 1==4,=-f4=",
"==-;$=$$$=$$====1=@4qdMddMMMMMMBMMfq4414;o#$=-45JJkhhxxhjew$$.o;&$.o@=,hehjvhxkkfxkf0aaalaagggkvxavxkxhffreffffvNZ81$o1+=$@=;d=,",
",,--===-======-qN,=7dqddMMdMMNNNMfdq4444#o=$,4fBUcxhxcMvxxe8;@ .$o .#=477hxxhkkhakkkfw0kkagrafxkxxvkhkhffeefhffhbx6;OO4$@$=,N44,",
"hdgfgdfdqd44445M1;=4qddMMMMMNBNMjgq444,@o-=,5jSTNjxchvbCvcxhe8+. o..#&166fhvhhkkkkfrkkrrkkkafkvxacvvkhfkfefhhffhxw6:o=,@==,4Efff",
"IYPPPPUJNBNNMgk41,=@7qqfMNBMNNMMjq544,$=,$$5jFTjhxxhjjxvVbxccF6&@o .==248efhkxcikkkfkak0aakkahkxxbxxxkfffeffrffrr61<XXo$;,;4fNFP",
"NFNBNNNNMMxxccMj71;$1q7MMBBBMMMq5544,=,=$-4jTJxjfhhxjjhcVvVvvxZr=+.o$;1646wwerxkhaklakfkgfkkkkhxvbxhfhjhffffhhhf8411  $,,12fcxbN",
"NNNBNcMcxxxxxMNN771$$7qhBBMMMMM7544-$===-4kTMrjrhhhxxhjjjxbVbxxxj-#Oo=,144q8wqkikaagkkkaakkfhkvkkkkhhfkhffffjfhwq24+ @=,4qfxNNNZ",
"GJNNcNcNMxkxNMNNBq4=$1dMNNMMgMw45,=$:$=,4MPxrjhhhMxMxvxchhcVVbbvhv1$o@=,,44q8qrffkkakkkkkxkfkvavhhkkkffffffhhf6684$X#$-4qZxNZNcb",
"2$OwcccxxgkkMMNNBM7;==wjNMMMjrq2,==-==,5BBjfMdMqvxMjjMMjhfjbNNSbvhF,$o@$;,,666eqrkfakkfgkhkxagkxxkfkfkfhhhjjf4161$O@$;26NNxcNtl<",
"GS>OBygggffjxgMNBPf5<=5jeMMMuq5-=,==-,qBBMMhfMMMvjjjjjjjfhfhbVVCVbbL6#@o+;;;=48w0rrfkriffkkaxxkkxkkxkhxjxxxx611;+$;$;6qVVcxbil32",
"Jx5OmygllffdrjMBNYM55;-57qddd5;====;4qKBMMMMMMMMjMjhjjjhhhhdhbNVSZbCC,=+o@;=;;35ww0rirfaakkgxkxkkkxkhhvhxxj741&OO1$$6qvSbxxcpnOG",
"Bf2OaykcxMkMhjMNBNYd5,;2777q1;=;==;5eTMMBMMMMMMMjjhjjfhjhjfhekvVZFCVIv4=$@O,,,148qrerriffkxkxakkkhxkvvxvxjh6,$o@4$-68xGcckgkuA&G",
"Gf:3pygcMglg7MMMBCWMq4;;113;#o-#=24BIgMMMMMMMdMqdMMdjhhhjhhffefvbVFVVFG6=@@@;,114588rrragkkkxxafkxhhvxcvxj81@.$6=-6qjGbjxlkkiky:",
":&imyyggkkggMMMMBLNJq;=;;5<-@=$=45TMMMMBMMMMMMdMMdMMjjfhfhdjffrhvbBCCCSF7$$$o@;114458erfrkkkkvxkkvxvvvNvxw2&@$6$-6fjGZcckkkkrlpm",
"lsltugxgkggjqMMMNNNQM75=#;$O=$$=gYggkMgicxMMMfMdddddMMMdfdhhhferhjNVCCVJI7=$$@o+146288eerfkkkhkxxxvvbvbvh6-o$1-=68jZLcckkkfiir0t",
"ttiuixgggggjrdMMMNNUBM5=OO#$==,2rfMMMunKBBggfdMMdMMdefMfffdffhfefhvNVCVCCUd,$@$$X;42585qdfkvxxhvvvbNNNMxq,@$1--6qhMANccxlkafrrr0"
};
